# This file uses inches as units for non-parametric coordinates.

mtllib Arm Patch 1.mtl
g default
v 2.738079 6.337429 -4.578940
v 14.609333 5.102230 -9.388432
v 2.738079 7.121873 -4.578940
v 14.612856 6.153001 -9.388431
v 2.677840 7.121873 -6.198709
v 13.866711 6.158197 -11.674467
v 2.677840 6.337429 -6.198709
v 13.864225 5.074981 -11.674471
v 5.592610 7.221214 -7.653435
v 5.539381 5.511201 -7.779685
v 5.960178 5.511201 -6.966429
v 6.014229 7.221213 -6.680790
v 12.248871 6.450758 -10.102770
v 12.248871 5.217999 -10.102770
v 12.449585 5.218000 -9.296404
v 12.449585 6.450758 -9.296404
v -14.609333 5.102230 -9.388431
v -14.612839 6.153001 -9.388434
v -13.866712 6.158197 -11.674474
v -13.864206 5.074981 -11.674476
v 5.410134 7.121557 -6.252819
v 4.366884 7.065293 -7.124346
v 4.336190 6.009791 -7.197184
v 5.407091 6.009791 -6.302588
v 13.166523 6.147232 -10.773329
v 13.165470 5.109186 -10.773329
v 13.559190 5.120718 -9.490936
v 13.560682 6.145034 -9.490936
v 2.719536 7.121873 -4.924991
v 5.077397 7.102523 -6.499808
v 5.884463 7.221213 -6.980165
v 12.401390 6.458557 -9.544600
v 13.439363 6.145710 -9.885638
v 14.383201 6.154601 -10.092049
v 14.379999 5.093843 -10.092051
v 13.438007 5.117168 -9.885638
v 12.387808 5.218000 -9.544594
v 5.830650 5.511201 -7.216733
v 5.047061 6.035196 -6.594494
v 2.719536 6.337429 -4.924991
v 2.694865 7.121873 -5.678780
v 4.713151 7.082232 -6.791708
v 5.711739 7.221214 -7.378599
v 12.319168 6.458557 -9.874922
v 13.277899 6.146611 -10.410980
v 14.077545 6.156729 -11.028529
v 14.074763 5.082681 -11.028523
v 13.276722 5.112445 -10.410980
v 12.305587 5.217999 -9.874923
v 5.658272 5.511201 -7.549880
v 4.655286 6.011508 -6.898801
v 2.694865 6.337429 -5.678780
v 5.788934 7.256980 -7.701086
v 5.729417 5.502896 -7.845476
v 5.846555 5.502896 -7.615737
v 6.016383 5.502896 -7.282669
v 6.143982 5.502896 -7.032418
v 6.183352 7.256979 -6.791652
v 6.068664 7.256980 -7.052795
v 5.898509 7.256981 -7.449306
v 12.064618 6.487101 -10.034973
v 12.063144 5.226116 -10.038465
v 12.121579 5.226116 -9.810569
v 12.206296 5.226116 -9.480154
v 12.269948 5.226116 -9.231905
v 12.271445 6.485216 -9.224005
v 12.207786 6.549495 -9.473606
v 12.123058 6.550267 -9.805823
v 6.018017 7.225520 -7.784889
v 5.960194 5.492811 -7.925384
v 6.075192 5.492811 -7.695712
v 6.241934 5.492811 -7.362749
v 6.367194 5.492811 -7.112567
v 6.405623 7.156206 -6.879057
v 6.309377 7.375811 -7.093462
v 6.111754 7.408648 -7.573056
v 11.935678 6.699751 -9.734880
v 11.875463 6.522423 -9.965367
v 11.872477 5.234447 -9.972454
v 11.932680 5.234448 -9.744492
v 12.019961 5.234448 -9.414009
v 12.085540 5.234448 -9.165699
v 12.088571 6.518601 -9.149669
v 12.022978 6.698186 -9.400732
v 14.609333 5.102230 -9.388432
v 14.612853 6.153001 -9.388431
v 13.866714 6.158197 -11.674475
v 13.864222 5.074981 -11.674473
v -14.609333 5.102230 -9.388431
v -14.612856 6.153001 -9.388432
v -13.866712 6.158197 -11.674468
v -13.864226 5.074981 -11.674471
v 14.609333 5.102230 -9.388432
v 14.612839 6.153001 -9.388433
v 13.866713 6.158197 -11.674475
v 13.864206 5.074981 -11.674477
v -14.383201 6.154601 -10.092048
v -14.379997 5.093843 -10.092051
v -14.077543 6.156729 -11.028529
v -14.074763 5.082681 -11.028524
v -14.609333 5.102230 -9.388431
v -14.612853 6.153001 -9.388431
v -13.866712 6.158197 -11.674475
v -13.864222 5.074981 -11.674474
vt 1.771764 0.358117
vt 1.771764 0.193043
vt 1.778071 0.191153
vt 1.778199 0.359001
vt 1.791805 0.189961
vt 1.796729 0.359186
vt 1.796377 0.190581
vt 1.801369 0.358773
vt 1.832015 0.183609
vt 1.849133 0.352297
vt 1.726677 0.352082
vt 1.737200 0.187749
vt 1.855901 0.350699
vt 1.838397 0.183443
vt 1.865714 0.348381
vt 1.847648 0.183203
vt 1.873087 0.346640
vt 1.854600 0.183022
vt 1.796571 0.184837
vt 1.796813 0.179234
vt 1.830899 0.172469
vt 1.831450 0.177966
vt 1.800906 0.144556
vt 1.829610 0.140596
vt 1.796225 0.113035
vt 1.826182 0.108926
vt 1.893123 0.135076
vt 1.897984 0.136174
vt 1.901838 0.159930
vt 1.893903 0.158559
vt 1.912159 0.181486
vt 1.897897 0.179259
vt 1.873758 0.155077
vt 1.882400 0.156571
vt 1.877221 0.176030
vt 1.861686 0.173604
vt 1.880780 0.132290
vt 1.886075 0.133486
vt 1.893679 0.131033
vt 1.898558 0.132099
vt 1.886606 0.129487
vt 1.881291 0.128326
vt 1.894251 0.126881
vt 1.899148 0.127915
vt 1.887151 0.125382
vt 1.881817 0.124256
vt 1.771179 0.182604
vt 1.737977 0.177449
vt 1.738694 0.146783
vt 1.766285 0.149759
vt 1.740814 0.119196
vt 1.769124 0.122196
vt 1.771494 0.187758
vt 1.737594 0.182531
vt 1.951696 0.172107
vt 1.946160 0.172024
vt 1.951380 0.147266
vt 1.960202 0.147217
vt 1.959528 0.125211
vt 1.975340 0.125397
vt 1.938590 0.147337
vt 1.938255 0.172497
vt 1.932393 0.173261
vt 1.928981 0.147390
vt 1.936605 0.124942
vt 1.919383 0.124739
vt 1.945976 0.176813
vt 1.938010 0.177244
vt 1.945697 0.181808
vt 1.937667 0.182195
vt 1.932818 0.174101
vt 1.932428 0.177858
vt 1.951092 0.177515
vt 1.951340 0.173655
vt 1.932027 0.181690
vt 1.950836 0.181453
vt 1.803541 0.371007
vt 1.801564 0.365646
vt 1.849934 0.359087
vt 1.850593 0.364677
vt 1.841918 0.403754
vt 1.812915 0.407650
vt 1.773367 0.369804
vt 1.727171 0.363007
vt 1.726948 0.358073
vt 1.774510 0.364354
vt 1.769962 0.389929
vt 1.739481 0.387504
vt 1.743568 0.475672
vt 1.764977 0.476916
vt 1.957484 0.191908
vt 1.955958 0.220250
vt 1.950398 0.218217
vt 1.951612 0.194502
vt 1.955017 0.236686
vt 1.951104 0.234434
vt 1.954800 0.234282
vt 1.969945 0.186502
vt 1.965696 0.225036
vt 1.961161 0.222696
vt 1.965997 0.188148
vt 1.964184 0.233896
vt 1.960158 0.234062
vt 1.963861 0.236320
vt 1.960341 0.236448
vt 1.961182 0.239191
vt 1.964083 0.239365
vt 1.954788 0.239532
vt 1.951629 0.236820
vt 1.951929 0.239841
vt 1.817604 0.460543
vt 1.838921 0.457661
vt 1.886473 0.456294
vt 1.891790 0.456360
vt 1.891147 0.460434
vt 1.885848 0.460337
vt 1.872974 0.456128
vt 1.878765 0.456199
vt 1.878167 0.460197
vt 1.872395 0.460091
vt 1.890366 0.465383
vt 1.885090 0.465248
vt 1.877439 0.465052
vt 1.871692 0.464905
vt 1.884199 0.429673
vt 1.892792 0.426949
vt 1.865871 0.437146
vt 1.874741 0.433549
vt 1.891701 0.387021
vt 1.882189 0.382048
vt 1.868398 0.374836
vt 1.861994 0.371655
vn 0.535577 -0.023016 0.844173
vn 0.592800 -0.056739 0.803348
vn 0.576993 -0.047243 0.815382
vn 0.535577 -0.023016 0.844173
vn 0.003477 0.999775 -0.020920
vn -0.025766 0.999668 -0.000455
vn -0.040838 0.999115 0.010115
vn 0.012171 0.999612 -0.025047
vn -0.494212 0.042618 -0.868296
vn -0.445973 0.062169 -0.892885
vn -0.429577 0.068635 -0.900418
vn -0.494212 0.042618 -0.868296
vn -0.141540 -0.988100 0.060211
vn -0.209740 -0.967039 0.144376
vn -0.181743 -0.974504 0.131569
vn -0.110155 -0.991958 0.062334
vn 0.950708 -0.002523 -0.310077
vn 0.950708 -0.002322 -0.310079
vn 0.950708 -0.002322 -0.310079
vn 0.950708 -0.002524 -0.310077
vn -0.372871 0.079688 -0.924455
vn -0.310166 0.086244 -0.946762
vn -0.311167 0.086342 -0.946425
vn -0.359895 0.080370 -0.929525
vn -0.265121 -0.934533 0.237401
vn -0.259790 -0.941010 0.216814
vn -0.037262 -0.999125 0.018975
vn -0.037473 -0.999116 0.019077
vn 0.601441 -0.116349 0.790400
vn 0.566257 -0.124004 0.814848
vn 0.372221 -0.141119 0.917353
vn 0.411169 -0.143563 0.900183
vn -0.343604 0.924914 0.162699
vn -0.108063 0.992689 0.053766
vn -0.112608 0.992088 0.055499
vn -0.512494 0.000683 -0.858690
vn -0.676497 0.000699 -0.736445
vn -0.704782 0.000846 -0.709424
vn -0.561200 0.000430 -0.827680
vn -0.083842 -0.996069 0.028593
vn -0.088394 -0.995631 0.030099
vn -0.032945 -0.999252 0.020258
vn -0.046587 -0.998656 0.022727
vn 0.239251 -0.001209 0.970957
vn 0.194992 -0.000481 0.980805
vn 0.031421 0.000069 0.999506
vn 0.074504 0.000014 0.997221
vn 0.253225 0.962416 -0.098142
vn 0.278078 0.956979 -0.082852
vn 0.091326 0.995429 -0.027928
vn 0.037154 0.999242 -0.011657
vn -0.950708 -0.002679 -0.310075
vn -0.950708 -0.002679 -0.310075
vn -0.950708 -0.002679 -0.310075
vn -0.950708 -0.002679 -0.310075
vn -0.789944 0.001319 -0.613177
vn -0.789944 0.001319 -0.613177
vn -0.023943 -0.999542 0.018504
vn -0.023480 -0.999556 0.018356
vn -0.097055 0.000234 0.995279
vn -0.097055 0.000234 0.995279
vn -0.008935 0.999948 0.004927
vn -0.009035 0.999947 0.004959
vn -0.012161 0.999616 -0.024880
vn -0.022457 0.999618 -0.016129
vn -0.024771 0.999685 -0.004043
vn -0.008774 0.999683 -0.023618
vn -0.115358 0.991385 0.062026
vn -0.116428 0.991476 0.058475
vn 0.135758 0.940722 0.310825
vn -0.331969 0.930006 0.157751
vn 0.100280 0.994680 -0.023588
vn 0.280190 0.957419 -0.069586
vn 0.265059 0.963110 -0.046507
vn 0.051465 0.998636 -0.008784
vn -0.008363 0.999954 0.004745
vn -0.008201 0.999955 0.004693
vn 0.950708 -0.003027 -0.310071
vn 0.950708 -0.002818 -0.310074
vn 0.950708 -0.002819 -0.310074
vn 0.950708 -0.003027 -0.310071
vn -0.031996 -0.999297 0.019539
vn -0.046620 -0.998659 0.022514
vn -0.020835 -0.999630 0.017513
vn -0.020081 -0.999649 0.017272
vn -0.080365 -0.996378 0.027780
vn -0.081328 -0.996298 0.027849
vn -0.351365 -0.893921 0.278294
vn -0.292563 -0.917224 0.270382
vn -0.037781 -0.999101 0.019233
vn -0.037999 -0.999091 0.019342
vn -0.145250 -0.987478 0.061563
vn -0.162582 -0.980182 0.113184
vn -0.107166 -0.993659 0.034014
vn -0.108450 -0.993793 0.024781
vn -0.333217 0.055613 -0.941209
vn -0.333535 0.053904 -0.941196
vn -0.038648 -0.999140 0.014993
vn -0.038873 -0.999131 0.015066
vn -0.039210 -0.999115 0.015192
vn -0.039451 -0.999105 0.015281
vn 0.346612 -0.085751 0.934081
vn 0.344688 -0.089377 0.934453
vn 0.187716 0.952645 0.239227
vn 0.313858 0.771584 0.553309
vn 0.018905 0.977768 -0.208835
vn -0.216102 0.948707 -0.230769
vn -0.127271 0.789964 -0.599800
vn -0.335878 0.003723 -0.941898
vn -0.335965 0.002855 -0.941870
vn -0.040519 -0.999125 0.010394
vn -0.040269 -0.999135 0.010333
vn -0.040883 -0.999109 0.010487
vn -0.041138 -0.999098 0.010554
vn 0.356596 -0.007753 0.934227
vn 0.356768 -0.005966 0.934174
vn 0.511510 0.854790 -0.087701
vn 0.364997 0.885924 0.286211
vn 0.482357 0.860156 -0.165722
vn 0.103559 0.904785 -0.413086
vn -0.333784 0.052162 -0.941205
vn -0.333839 0.051074 -0.941245
vn -0.038751 -0.999141 0.014695
vn -0.038984 -0.999131 0.014778
vn -0.039317 -0.999116 0.014903
vn -0.039553 -0.999105 0.014995
vn 0.347906 -0.081365 0.933992
vn 0.347682 -0.083063 0.933926
vn 0.312232 0.772790 0.552545
vn 0.217360 0.947758 0.233472
vn 0.016870 0.954982 -0.296184
vn -0.125891 0.790403 -0.599513
vn 0.950709 -0.002678 -0.310074
vn 0.950709 -0.002678 -0.310074
vn 0.950709 -0.002678 -0.310074
vn 0.950709 -0.002678 -0.310074
vn -0.950709 -0.002521 -0.310076
vn -0.950709 -0.002522 -0.310076
vn -0.950709 -0.002321 -0.310077
vn -0.950709 -0.002321 -0.310077
vn 0.950709 -0.002679 -0.310074
vn 0.950709 -0.002679 -0.310074
vn 0.950709 -0.002679 -0.310074
vn 0.950709 -0.002679 -0.310074
vn -0.950708 -0.003029 -0.310074
vn -0.950708 -0.003029 -0.310074
vn -0.950708 -0.002819 -0.310074
vn -0.950708 -0.002818 -0.310075
vn -0.950709 -0.002679 -0.310074
vn -0.950709 -0.002679 -0.310074
vn -0.950709 -0.002679 -0.310074
vn -0.950709 -0.002679 -0.310074
s 1
g Front_Arm
usemtl lambert12SG
f 1/89/1 24/88/2 21/87/3 3/90/4
s 2
f 41/91/5 42/92/6 22/93/7 5/94/8
s 3
f 5/111/9 22/82/10 23/81/11 7/112/12
s 4
f 7/129/13 23/126/14 51/125/15 52/130/16
s 5
g defaultHideFaceDataSet pCubeShape5HiddenFacesSet Front_Arm
f 47//17 8//18 6//19 46//20
s 3
g Front_Arm
f 9/77/21 53/78/22 54/79/23 10/80/24
s 4
f 50/113/25 10/114/26 54/115/27 55/116/28
s 1
f 12/83/29 11/84/30 57/85/31 58/86/32
s 2
f 60/95/33 9/96/34 43/97/35
s 3
f 13/20/36 25/23/37 26/24/38 14/21/39
s 4
f 49/27/40 14/28/41 26/29/42 48/30/43
s 1
f 16/47/44 15/48/45 27/49/46 28/50/47
s 2
f 13/55/48 44/56/49 45/57/50 25/58/51
s off
g defaultHideFaceDataSet pCubeShape5HiddenFacesSet Front_Arm
f 17//52 18//53 19//54 20//55
s 2
g Front_Arm
f 42/92/6 43/97/35 9/96/34 22/93/7
s 3
f 23/81/11 22/82/10 9/77/21 10/80/24
s 4
f 51/125/15 23/126/14 10/114/26 50/113/25
s 1
f 21/87/3 24/88/2 11/84/30 12/83/29
s 3
f 25/23/37 6/25/56 8/26/57 26/24/38
s 4
f 48/30/43 26/29/42 8/31/58 47/32/59
s 1
f 28/50/47 27/49/46 2/51/60 4/52/61
s 2
f 25/58/51 45/57/50 46/59/62 6/60/63
f 3/98/64 21/99/65 30/100/66 29/101/67
f 21/99/65 12/102/68 31/103/69 30/100/66
f 12/102/68 58/104/70 59/105/71
f 33/61/72 32/62/73 16/63/74 28/64/75
f 34/65/76 33/61/72 28/64/75 4/66/77
s 5
g defaultHideFaceDataSet pCubeShape5HiddenFacesSet Front_Arm
f 2//78 35//79 34//80 4//81
s 4
g Front_Arm
f 27/33/82 36/34/83 35/35/84 2/36/85
f 15/37/86 37/38/87 36/34/83 27/33/82
f 11/117/88 38/118/89 56/119/90 57/120/91
f 24/127/92 39/128/93 38/118/89 11/117/88
f 40/131/94 39/128/93 24/127/92 1/132/95
s 2
f 29/101/67 30/100/66 42/92/6 41/91/5
f 30/100/66 31/103/69 43/97/35 42/92/6
f 60/95/33 43/97/35 31/103/69 59/105/71
f 45/57/50 44/56/49 32/62/73 33/61/72
f 46/59/62 45/57/50 33/61/72 34/65/76
s 5
g defaultHideFaceDataSet pCubeShape5HiddenFacesSet Front_Arm
f 35//79 47//17 46//20 34//80
s 4
g Front_Arm
f 36/34/83 48/30/43 47/32/59 35/35/84
f 37/38/87 49/27/40 48/30/43 36/34/83
f 38/118/89 50/113/25 55/116/28 56/119/90
f 39/128/93 51/125/15 50/113/25 38/118/89
f 52/130/16 51/125/15 39/128/93 40/131/94
s 3
f 53/78/22 69/8/96 70/10/97 54/79/23
s 4
f 55/116/28 54/115/27 70/121/98 71/122/99
f 56/119/90 55/116/28 71/122/99 72/123/100
f 57/120/91 56/119/90 72/123/100 73/124/101
s 1
f 58/86/32 57/85/31 73/11/102 74/1/103
s 2
f 75/106/104 58/104/70 74/107/105
f 76/108/106 60/95/33 59/105/71 75/106/104
f 53/109/107 76/108/106 69/110/108
s 3
f 61/19/109 13/20/36 14/21/39 62/22/110
s 4
f 63/39/111 62/40/112 14/28/41 49/27/40
f 64/41/113 63/39/111 49/27/40 37/38/87
f 65/42/114 64/41/113 37/38/87 15/37/86
s 1
f 66/53/115 65/54/116 15/48/45 16/47/44
s 2
f 16/71/74 67/68/117 66/72/118
f 44/56/49 68/67/119 67/68/117 32/62/73
f 61/73/120 68/67/119 13/74/48
s 3
f 69/8/96 78/7/121 79/9/122 70/10/97
s 4
f 71/13/99 70/10/98 79/9/123 80/14/124
f 72/15/100 71/13/99 80/14/124 81/16/125
f 73/17/101 72/15/100 81/16/125 82/18/126
s 1
f 74/1/103 73/11/102 82/12/127 83/2/128
s 2
f 74/1/105 83/2/129 84/3/130 75/4/104
f 75/4/104 84/3/130 77/5/131 76/6/106
f 78/7/132 69/8/108 76/6/106 77/5/131
f 61/73/120 77/69/131 68/67/119
s 3
f 79/9/122 78/7/121 61/19/109 62/22/110
s 4
f 80/43/124 79/44/123 62/40/112 63/39/111
f 81/45/125 80/43/124 63/39/111 64/41/113
f 82/46/126 81/45/125 64/41/113 65/42/114
s 1
f 83/2/128 82/12/127 65/54/116 66/53/115
s 2
f 66/72/118 84/70/130 83/75/129
f 68/67/119 77/69/131 84/70/130 67/68/117
f 53/109/107 60/95/33 76/108/106
f 75/106/104 59/105/71 58/104/70
s off
g defaultHideFaceDataSet pCubeShape5HiddenFacesSet Front_Arm
f 85//133 88//134 87//135 86//136
s 2
g Front_Arm
f 67/68/117 84/70/130 66/72/118
f 78/76/132 77/69/131 61/73/120
f 32/62/73 67/68/117 16/71/74
f 13/74/48 68/67/119 44/56/49
f 60/95/33 53/109/107 9/96/34
f 12/102/68 59/105/71 31/103/69
s 17
g defaultHideFaceDataSet pCubeShape5HiddenFacesSet Front_Arm
f 100//137 99//138 91//139 92//140
s off
f 93//141 96//142 95//143 94//144
s 17
f 89//145 90//146 97//147 98//148
f 98//148 97//147 99//138 100//137
s off
f 101//149 102//150 103//151 104//152
