# This file uses inches as units for non-parametric coordinates.

mtllib Front arms.mtl
g default
v 6.045961 5.490491 -7.030246
v 12.459120 5.217672 -9.293816
v 6.174929 7.201906 -6.821346
v 12.456977 6.450469 -9.292617
v 5.468917 7.201906 -7.597456
v 12.277229 6.450469 -10.036036
v 5.468917 5.490491 -7.597456
v 12.277229 5.217672 -10.036036
v 6.199354 7.291542 -7.040685
v 12.280077 6.573589 -9.320532
v 12.170716 6.573589 -9.854150
v 5.677053 7.291542 -7.575206
v 12.730759 5.133601 -10.164322
v 12.898315 5.133601 -9.480596
v 12.730759 6.269242 -10.164322
v 12.896340 6.269242 -9.479491
v 13.113888 5.048689 -10.299582
v 13.281446 5.048689 -9.615854
v 13.113888 6.184330 -10.299582
v 13.279474 6.184330 -9.614748
v 13.449463 5.097733 -11.122377
v 14.104496 5.097733 -9.485775
v 13.449463 6.159438 -11.122377
v 14.102659 6.159438 -9.484283
v 4.292238 6.101347 -6.948244
v 4.925377 6.141422 -6.224814
v 4.976650 7.042689 -6.180535
v 4.257834 7.061068 -6.987554
v 1.689233 6.276637 -5.744909
v 2.656060 6.308221 -4.600777
v 2.707332 7.164283 -4.556500
v 1.588633 7.178330 -5.867675
v -6.045961 5.490491 -7.030247
v -12.459119 5.217672 -9.293816
v -6.174928 7.201906 -6.821345
v -12.456978 6.450469 -9.292618
v -5.468917 7.201906 -7.597456
v -12.277228 6.450469 -10.036037
v -5.468917 5.490491 -7.597456
v -12.277228 5.217672 -10.036037
v -6.199354 7.291542 -7.040685
v -12.280077 6.573589 -9.320533
v -12.170715 6.573589 -9.854151
v -5.677053 7.291542 -7.575206
v -12.730758 5.133601 -10.164322
v -12.898313 5.133601 -9.480597
v -12.730758 6.269242 -10.164322
v -12.896339 6.269242 -9.479493
v -13.113888 5.048689 -10.299582
v -13.281445 5.048689 -9.615855
v -13.113888 6.184330 -10.299582
v -13.279474 6.184330 -9.614749
v -13.449462 5.097733 -11.122378
v -14.104496 5.097733 -9.485776
v -13.449462 6.159438 -11.122378
v -14.102660 6.159438 -9.484283
v -4.292238 6.101347 -6.948244
v -4.925376 6.141422 -6.224814
v -4.976649 7.042689 -6.180535
v -4.257833 7.061068 -6.987555
v -1.689232 6.276637 -5.744909
v -2.656060 6.308221 -4.600777
v -2.707332 7.164283 -4.556499
v -1.588633 7.178330 -5.867675
vt 1.919870 0.318049
vt 1.752930 0.395882
vt 1.955532 0.158844
vt 1.888809 0.237280
vt 1.883313 0.240855
vt 1.891623 0.420319
vt 1.876956 0.423318
vt 1.864128 0.233497
vt 1.840036 0.226235
vt 1.873740 0.429226
vt 1.810887 0.379468
vt 1.789090 0.222470
vt 1.809923 0.389369
vt 1.752402 0.407815
vt 1.875673 0.442987
vt 1.952170 0.147199
vt 1.808838 0.397944
vt 1.751332 0.417966
vt 1.876529 0.454357
vt 1.950931 0.137400
vt 1.811329 0.416271
vt 1.739751 0.434917
vt 1.859476 0.471912
vt 1.951922 0.117638
vt 1.933815 0.351480
vt 1.785755 0.186201
vt 1.892180 0.199791
vt 1.834894 0.198349
vt 1.934577 0.417936
vt 1.787095 0.115601
vt 1.908602 0.124730
vt 1.832914 0.138130
vt 1.863978 0.190372
vt 1.863308 0.110693
vt 1.955281 0.352137
vt 1.954946 0.418574
vt 1.762896 0.192416
vt 1.751379 0.124601
vt 1.814990 0.200197
vt 1.814014 0.140456
vt 1.859928 0.228853
vt 1.861558 0.227788
vt 1.889264 0.238118
vt 1.960901 0.320157
vt 1.770383 0.229306
vt 1.804551 0.229071
vt 1.895636 0.450984
vt 1.907989 0.470313
vt 1.832382 0.396046
vt 1.833339 0.414510
vt 1.923988 0.135168
vt 1.926749 0.115586
vt 1.768298 0.421451
vt 1.783051 0.437642
vt 1.894791 0.439611
vt 1.833476 0.387489
vt 1.925246 0.144964
vt 1.769376 0.411304
vt 1.895598 0.424782
vt 1.894479 0.425572
vt 1.872544 0.428374
vt 1.836445 0.377423
vt 1.926333 0.156436
vt 1.771353 0.399670
vt 1.681896 0.264555
vt 1.688358 0.426168
vt 1.717557 0.423761
vt 1.722927 0.262448
vt 1.645338 0.341749
vt 1.653649 0.162285
vt 1.638982 0.159286
vt 1.626154 0.349108
vt 1.602061 0.356369
vt 1.598471 0.205181
vt 1.572912 0.203137
vt 1.566576 0.353533
vt 1.551116 0.360135
vt 1.533378 0.182935
vt 1.514956 0.186723
vt 1.532408 0.353299
vt 1.651289 0.344487
vt 1.657623 0.157822
vt 1.656505 0.157033
vt 1.635766 0.153378
vt 1.634569 0.154231
vt 1.621954 0.353751
vt 1.623583 0.354816
vt 1.650835 0.345324
vt 1.531401 0.171300
vt 1.514427 0.174789
vt 1.595501 0.195115
vt 1.571949 0.193235
vt 1.656816 0.142993
vt 1.637699 0.139618
vt 1.687271 0.437641
vt 1.714195 0.435405
vt 1.530324 0.161154
vt 1.513357 0.164638
vt 1.594408 0.186558
vt 1.570863 0.184661
vt 1.657661 0.131620
vt 1.638555 0.128247
vt 1.686013 0.447437
vt 1.712956 0.445204
vt 1.545076 0.144962
vt 1.501777 0.147688
vt 1.595365 0.168094
vt 1.573354 0.166333
vt 1.670015 0.112291
vt 1.621502 0.110693
vt 1.688774 0.467019
vt 1.713948 0.464966
vt 1.524921 0.390188
vt 1.547781 0.396403
vt 1.717306 0.230468
vt 1.695840 0.231125
vt 1.626003 0.392233
vt 1.654205 0.382813
vt 1.577016 0.382407
vt 1.596920 0.384255
vt 1.513405 0.458003
vt 1.549120 0.467003
vt 1.716972 0.164030
vt 1.696603 0.164668
vt 1.625334 0.471912
vt 1.670627 0.457874
vt 1.576039 0.442148
vt 1.594939 0.444474
vn 0.342503 -0.081545 0.935971
vn 0.342503 -0.081545 0.935971
vn 0.342503 -0.081545 0.935971
vn 0.342503 -0.081545 0.935971
vn 0.093477 0.994086 -0.055279
vn 0.093477 0.994086 -0.055279
vn 0.093477 0.994086 -0.055279
vn 0.093477 0.994086 -0.055279
vn -0.337200 -0.000000 -0.941433
vn -0.337200 -0.000000 -0.941433
vn -0.337200 -0.000000 -0.941433
vn -0.337200 -0.000000 -0.941433
vn -0.034189 -0.999219 0.019816
vn -0.034189 -0.999219 0.019816
vn -0.034189 -0.999219 0.019816
vn -0.034189 -0.999219 0.019816
vn 0.293132 0.806601 0.513292
vn 0.293132 0.806601 0.513292
vn 0.293132 0.806601 0.513292
vn 0.293132 0.806601 0.513292
vn 0.606127 0.783441 -0.137222
vn 0.606127 0.783441 -0.137222
vn 0.606127 0.783441 -0.137222
vn 0.606127 0.783441 -0.137222
vn -0.159041 0.722025 -0.673339
vn -0.159041 0.722025 -0.673339
vn -0.159041 0.722025 -0.673339
vn -0.159041 0.722025 -0.673339
vn -0.370220 0.861714 0.346967
vn -0.370220 0.861714 0.346967
vn -0.370220 0.861714 0.346967
vn -0.370220 0.861714 0.346967
vn -0.170657 -0.984443 0.041822
vn -0.170657 -0.984443 0.041822
vn -0.170657 -0.984443 0.041822
vn -0.170657 -0.984443 0.041822
vn -0.272181 0.000000 -0.962246
vn -0.272181 0.000000 -0.962246
vn -0.272181 0.000000 -0.962246
vn -0.272181 0.000000 -0.962246
vn 0.349064 0.933291 -0.084399
vn 0.349064 0.933291 -0.084398
vn 0.349064 0.933291 -0.084398
vn 0.349064 0.933291 -0.084398
vn 0.391323 -0.000215 0.920254
vn 0.391323 -0.000215 0.920254
vn 0.391323 -0.000215 0.920254
vn 0.391323 -0.000215 0.920253
vn -0.199625 -0.978650 0.048921
vn -0.199625 -0.978650 0.048921
vn -0.199625 -0.978650 0.048921
vn -0.199625 -0.978650 0.048921
vn -0.332903 0.000000 -0.942961
vn -0.332903 0.000000 -0.942961
vn -0.332903 0.000000 -0.942961
vn -0.332903 0.000000 -0.942961
vn 0.199835 0.978638 -0.048318
vn 0.199835 0.978638 -0.048318
vn 0.199835 0.978638 -0.048318
vn 0.199835 0.978638 -0.048318
vn 0.332829 -0.000340 0.942987
vn 0.332829 -0.000340 0.942987
vn 0.332829 -0.000340 0.942987
vn 0.332829 -0.000340 0.942987
vn 0.069663 -0.997265 -0.024696
vn 0.069663 -0.997265 -0.024696
vn 0.069663 -0.997265 -0.024696
vn 0.069663 -0.997265 -0.024696
vn -0.925950 0.000000 -0.377647
vn -0.925950 0.000000 -0.377647
vn -0.925950 0.000000 -0.377647
vn -0.925950 0.000000 -0.377647
vn 0.035463 0.999293 -0.012500
vn 0.035463 0.999293 -0.012500
vn 0.035463 0.999293 -0.012500
vn 0.035463 0.999293 -0.012500
vn -0.156300 -0.001439 0.987709
vn -0.156301 -0.001439 0.987709
vn -0.156300 -0.001439 0.987709
vn -0.156300 -0.001439 0.987709
vn -0.299889 -0.902470 0.309217
vn -0.299889 -0.902470 0.309217
vn -0.299889 -0.902470 0.309217
vn -0.299889 -0.902470 0.309217
vn 0.507425 -0.117724 0.853616
vn 0.507425 -0.117724 0.853616
vn 0.507425 -0.117724 0.853616
vn 0.507425 -0.117724 0.853616
vn -0.080228 0.993253 0.083737
vn -0.080229 0.993253 0.083737
vn -0.080228 0.993253 0.083737
vn -0.080228 0.993253 0.083737
vn -0.469286 -0.019037 -0.882841
vn -0.469286 -0.019037 -0.882841
vn -0.469286 -0.019037 -0.882841
vn -0.469286 -0.019037 -0.882841
vn -0.031939 -0.997333 0.065630
vn -0.031939 -0.997333 0.065630
vn -0.031939 -0.997333 0.065630
vn -0.031939 -0.997333 0.065630
vn 0.577207 -0.074660 0.813178
vn 0.577207 -0.074660 0.813178
vn 0.577207 -0.074660 0.813178
vn 0.577207 -0.074660 0.813178
vn 0.038341 0.999103 -0.017966
vn 0.038341 0.999103 -0.017966
vn 0.038341 0.999103 -0.017966
vn 0.038341 0.999103 -0.017966
vn -0.405894 -0.108452 -0.907462
vn -0.405894 -0.108452 -0.907462
vn -0.405894 -0.108452 -0.907462
vn -0.405894 -0.108452 -0.907462
vn -0.342504 -0.081544 0.935971
vn -0.342504 -0.081544 0.935971
vn -0.342504 -0.081544 0.935971
vn -0.342504 -0.081544 0.935971
vn -0.093476 0.994086 -0.055279
vn -0.093476 0.994086 -0.055279
vn -0.093476 0.994086 -0.055279
vn -0.093476 0.994086 -0.055279
vn 0.337200 0.000000 -0.941433
vn 0.337200 0.000000 -0.941433
vn 0.337200 0.000000 -0.941433
vn 0.337200 0.000000 -0.941433
vn 0.034189 -0.999219 0.019816
vn 0.034189 -0.999219 0.019816
vn 0.034189 -0.999219 0.019816
vn 0.034189 -0.999219 0.019816
vn -0.293133 0.806600 0.513293
vn -0.293133 0.806600 0.513293
vn -0.293133 0.806600 0.513293
vn -0.293133 0.806600 0.513293
vn -0.606131 0.783438 -0.137224
vn -0.606131 0.783438 -0.137224
vn -0.606131 0.783438 -0.137224
vn -0.606131 0.783438 -0.137224
vn 0.159041 0.722025 -0.673339
vn 0.159041 0.722025 -0.673339
vn 0.159041 0.722025 -0.673339
vn 0.159041 0.722025 -0.673339
vn 0.370219 0.861714 0.346966
vn 0.370219 0.861715 0.346966
vn 0.370219 0.861714 0.346966
vn 0.370219 0.861714 0.346966
vn 0.170657 -0.984442 0.041822
vn 0.170657 -0.984443 0.041822
vn 0.170657 -0.984443 0.041822
vn 0.170657 -0.984442 0.041822
vn 0.272182 0.000000 -0.962246
vn 0.272182 0.000000 -0.962246
vn 0.272182 0.000000 -0.962246
vn 0.272182 0.000000 -0.962246
vn -0.349064 0.933291 -0.084399
vn -0.349064 0.933291 -0.084399
vn -0.349064 0.933291 -0.084399
vn -0.349064 0.933291 -0.084399
vn -0.391324 -0.000215 0.920253
vn -0.391324 -0.000215 0.920253
vn -0.391324 -0.000215 0.920253
vn -0.391324 -0.000215 0.920253
vn 0.199625 -0.978651 0.048920
vn 0.199625 -0.978651 0.048920
vn 0.199625 -0.978651 0.048920
vn 0.199625 -0.978651 0.048920
vn 0.332902 0.000000 -0.942961
vn 0.332902 0.000000 -0.942961
vn 0.332902 0.000000 -0.942961
vn 0.332902 0.000000 -0.942961
vn -0.199835 0.978638 -0.048317
vn -0.199835 0.978638 -0.048317
vn -0.199835 0.978638 -0.048317
vn -0.199835 0.978638 -0.048317
vn -0.332827 -0.000340 0.942988
vn -0.332827 -0.000340 0.942988
vn -0.332827 -0.000340 0.942988
vn -0.332827 -0.000340 0.942988
vn -0.069663 -0.997265 -0.024697
vn -0.069663 -0.997265 -0.024697
vn -0.069663 -0.997265 -0.024697
vn -0.069663 -0.997265 -0.024697
vn 0.925951 0.000000 -0.377645
vn 0.925951 0.000000 -0.377645
vn 0.925951 0.000000 -0.377645
vn 0.925951 0.000000 -0.377645
vn -0.035463 0.999293 -0.012500
vn -0.035463 0.999293 -0.012500
vn -0.035463 0.999293 -0.012500
vn -0.035463 0.999293 -0.012500
vn 0.156301 -0.001439 0.987709
vn 0.156301 -0.001439 0.987709
vn 0.156301 -0.001439 0.987709
vn 0.156301 -0.001439 0.987709
vn 0.299889 -0.902470 0.309217
vn 0.299889 -0.902470 0.309217
vn 0.299889 -0.902470 0.309217
vn 0.299889 -0.902470 0.309217
vn -0.507425 -0.117725 0.853616
vn -0.507425 -0.117725 0.853616
vn -0.507425 -0.117725 0.853616
vn -0.507425 -0.117725 0.853616
vn 0.080229 0.993253 0.083737
vn 0.080229 0.993253 0.083737
vn 0.080229 0.993253 0.083737
vn 0.080229 0.993253 0.083737
vn 0.469286 -0.019037 -0.882841
vn 0.469286 -0.019037 -0.882841
vn 0.469286 -0.019037 -0.882841
vn 0.469286 -0.019037 -0.882841
vn 0.031939 -0.997333 0.065630
vn 0.031939 -0.997333 0.065630
vn 0.031939 -0.997333 0.065630
vn 0.031939 -0.997333 0.065630
vn -0.577207 -0.074659 0.813178
vn -0.577207 -0.074659 0.813178
vn -0.577207 -0.074659 0.813178
vn -0.577207 -0.074659 0.813178
vn -0.038341 0.999103 -0.017966
vn -0.038341 0.999103 -0.017966
vn -0.038341 0.999103 -0.017966
vn -0.038341 0.999103 -0.017966
vn 0.405894 -0.108453 -0.907462
vn 0.405894 -0.108453 -0.907462
vn 0.405894 -0.108453 -0.907462
vn 0.405894 -0.108453 -0.907462
s off
g pCube14
usemtl lambert18SG
f 1/1/1 2/63/2 4/3/3 3/44/4
f 9/5/5 10/6/6 11/7/7 12/8/8
f 5/9/9 6/62/10 8/11/11 7/46/12
f 7/12/13 8/64/14 2/2/15 1/45/16
f 3/43/17 4/59/18 10/6/19 9/5/20
f 4/60/21 6/10/22 11/7/23 10/6/24
f 6/61/25 5/41/26 12/8/27 11/7/28
f 5/42/29 3/4/30 9/5/31 12/8/32
f 2/2/33 8/64/34 13/58/35 14/14/36
f 8/11/37 6/62/38 15/56/39 13/13/40
f 6/10/41 4/60/42 16/55/43 15/15/44
f 4/3/45 2/63/46 14/57/47 16/16/48
f 14/14/49 13/58/50 17/53/51 18/18/52
f 13/13/53 15/56/54 19/49/55 17/17/56
f 15/15/57 16/55/58 20/47/59 19/19/60
f 16/16/61 14/57/62 18/51/63 20/20/64
f 18/18/65 17/53/66 21/54/67 22/22/68
f 17/17/69 19/49/70 23/50/71 21/21/72
f 19/19/73 20/47/74 24/48/75 23/23/76
f 20/20/77 18/51/78 22/52/79 24/24/80
f 7/12/81 1/45/82 26/37/83 25/26/84
f 1/1/85 3/44/86 27/35/87 26/25/88
f 3/4/89 5/42/90 28/33/91 27/27/92
f 5/9/93 7/46/94 25/39/95 28/28/96
f 25/26/97 26/37/98 30/38/99 29/30/100
f 26/25/101 27/35/102 31/36/103 30/29/104
f 27/27/105 28/33/106 32/34/107 31/31/108
f 28/28/109 25/39/110 29/40/111 32/32/112
f 33/65/113 35/68/114 36/67/115 34/66/116
f 41/69/117 44/72/118 43/71/119 42/70/120
f 37/73/121 39/76/122 40/75/123 38/74/124
f 39/77/125 33/80/126 34/79/127 40/78/128
f 35/81/129 41/69/130 42/70/131 36/82/132
f 36/83/133 42/70/134 43/71/135 38/84/136
f 38/85/137 43/71/138 44/72/139 37/86/140
f 37/87/141 44/72/142 41/69/143 35/88/144
f 34/79/145 46/90/146 45/89/147 40/78/148
f 40/75/149 45/92/150 47/91/151 38/74/152
f 38/84/153 47/94/154 48/93/155 36/83/156
f 36/67/157 48/96/158 46/95/159 34/66/160
f 46/90/161 50/98/162 49/97/163 45/89/164
f 45/92/165 49/100/166 51/99/167 47/91/168
f 47/94/169 51/102/170 52/101/171 48/93/172
f 48/96/173 52/104/174 50/103/175 46/95/176
f 50/98/177 54/106/178 53/105/179 49/97/180
f 49/100/181 53/108/182 55/107/183 51/99/184
f 51/102/185 55/110/186 56/109/187 52/101/188
f 52/104/189 56/112/190 54/111/191 50/103/192
f 39/77/193 57/114/194 58/113/195 33/80/196
f 33/65/197 58/116/198 59/115/199 35/68/200
f 35/88/201 59/118/202 60/117/203 37/87/204
f 37/73/205 60/120/206 57/119/207 39/76/208
f 57/114/209 61/122/210 62/121/211 58/113/212
f 58/116/213 62/124/214 63/123/215 59/115/216
f 59/118/217 63/126/218 64/125/219 60/117/220
f 60/120/221 64/128/222 61/127/223 57/119/224
